# xmcd
#
# Track frame offsets:
#        150
#        8197
#        19712
#        32363
#        46071
#        58465
#        70129
#        84653
#        96763
#        111258
#        122858
#        138483
#        152651
#        166423
#        180119
#        196209
#        215211
#        234064
#        249754
#        271682
#        289454
#        310193
#        328331
#
# Disc length: 4641 seconds
#
# Revision: 14
# Processed by: cddbd v1.5.2PL0 Copyright (c) Steve Scherf et al.
# Submitted via: ExactAudioCopyFreeDBPlugin 1.0
#
DISCID=3c121f17
DTITLE=Various Artists / Best Of Bond... James Bond: 50 Years - 50 Tra
DTITLE=cks
DYEAR=2012
DGENRE=Soundtrack
TTITLE0=The John Barry Orchestra / James Bond Theme
TTITLE1=Matt Monro / From Russia With Love
TTITLE2=Shirley Bassey / Goldfinger
TTITLE3=Tom Jones / Thunderball
TTITLE4=Nancy Sinatra / You Only Live Twice
TTITLE5=The John Barry Orchestra / On Her Majesty's Secret Service
TTITLE6=Louis Armstrong / We Have All The Time In The World
TTITLE7=Shirley Bassey / Diamonds Are Forever
TTITLE8=Paul McCartney & Wings / Live And Let Die
TTITLE9=Lulu / The Man With The Golden Gun
TTITLE10=Carly Simon / Nobody Does It Better
TTITLE11=Shirley Bassey / Moonraker
TTITLE12=Sheena Easton / For Your Eyes Only
TTITLE13=Rita Coolidge / All Time High
TTITLE14=Duran Duran / A View To A Kill
TTITLE15=A-Ha / The Living Daylights
TTITLE16=Gladys Knight / Licence To Kill
TTITLE17=Tina Turner / GoldenEye
TTITLE18=Sheryl Crow / Tomorrow Never Dies
TTITLE19=Garbage / The World Is Not Enough
TTITLE20=Madonna / Die Another Day
TTITLE21=Chris Cornell / You Know My Name
TTITLE22=Jack White & Alicia Keys / Another Way To Die
EXTD=
EXTT0=
EXTT1=
EXTT2=
EXTT3=
EXTT4=
EXTT5=
EXTT6=
EXTT7=
EXTT8=
EXTT9=
EXTT10=
EXTT11=
EXTT12=
EXTT13=
EXTT14=
EXTT15=
EXTT16=
EXTT17=
EXTT18=
EXTT19=
EXTT20=
EXTT21=
EXTT22=
PLAYORDER=
.
